<svg xmlns="http://www.w3.org/2000/svg" width="240" height="240" viewBox="0 0 240 240">
  <g fill="none" stroke-linecap="round" stroke-linejoin="round">
    <!-- Pizza Slice (Top-Left) -->
    <path d="M28 20 L68 20 Q48 24 28 20 M28 20 L48 68 L68 20" stroke="#ff6347" stroke-width="2" stroke-opacity="0.22" fill="#ff6347" fill-opacity="0.04"/>
    <circle cx="45" cy="34" r="3" fill="#ff6347" fill-opacity="0.18"/>
    <circle cx="52" cy="48" r="2.5" fill="#ff6347" fill-opacity="0.18"/>
    <circle cx="40" cy="50" r="2" fill="#ff6347" fill-opacity="0.18"/>

    <!-- Fork & Knife (Top-Right) -->
    <path d="M170 18 L170 54 M164 18 L164 28 Q164 36 170 36 Q176 36 176 28 L176 18" stroke="#94a3b8" stroke-width="1.8" stroke-opacity="0.20"/>
    <path d="M194 18 Q202 22 202 32 Q202 40 196 42 L196 54 M190 32 L196 32" stroke="#94a3b8" stroke-width="1.8" stroke-opacity="0.20"/>

    <!-- Burger (Center) -->
    <path d="M96 95 Q120 78 144 95 Z" stroke="#ff6347" stroke-width="2" stroke-opacity="0.22" fill="#ff6347" fill-opacity="0.04"/>
    <path d="M92 102 Q120 98 148 102" stroke="#94a3b8" stroke-width="2" stroke-opacity="0.20"/>
    <path d="M95 109 Q120 115 145 109 Z" stroke="#94a3b8" stroke-width="1.8" stroke-opacity="0.20"/>
    <circle cx="112" cy="88" r="1" fill="#ff6347" fill-opacity="0.25"/>
    <circle cx="128" cy="87" r="1" fill="#ff6347" fill-opacity="0.25"/>

    <!-- Drink with Straw (Bottom-Left) -->
    <path d="M32 155 L38 205 Q38 210 54 210 Q70 210 70 205 L76 155 Z" stroke="#94a3b8" stroke-width="1.8" stroke-opacity="0.20"/>
    <path d="M28 155 L80 155" stroke="#94a3b8" stroke-width="1.8" stroke-opacity="0.20"/>
    <path d="M54 155 L66 130 L76 130" stroke="#ff6347" stroke-width="1.8" stroke-opacity="0.24"/>
    <circle cx="48" cy="180" r="2.5" fill="#94a3b8" fill-opacity="0.18"/>
    <circle cx="60" cy="190" r="2.5" fill="#94a3b8" fill-opacity="0.18"/>
    <circle cx="46" cy="195" r="2" fill="#94a3b8" fill-opacity="0.18"/>

    <!-- Ramen / Noodle Bowl with Chopsticks & Steam (Bottom-Right) -->
    <path d="M155 165 Q155 205 188 205 Q220 205 220 165 Z" stroke="#ff6347" stroke-width="2" stroke-opacity="0.22" fill="#ff6347" fill-opacity="0.04"/>
    <path d="M148 165 L226 165" stroke="#ff6347" stroke-width="2" stroke-opacity="0.22"/>
    <path d="M174 205 L170 214 L204 214 L200 205" stroke="#94a3b8" stroke-width="1.6" stroke-opacity="0.20"/>
    <path d="M168 155 Q174 145 168 136 M184 155 Q190 145 184 136 M200 155 Q206 145 200 136" stroke="#ff6347" stroke-width="1.6" stroke-opacity="0.22"/>
    <path d="M160 150 L208 120" stroke="#94a3b8" stroke-width="1.8" stroke-opacity="0.20"/>

    <!-- Coffee Mug (Right-Center) -->
    <path d="M190 90 L190 110 Q190 118 202 118 Q214 118 214 110 L214 90 Z" stroke="#94a3b8" stroke-width="1.6" stroke-opacity="0.20"/>
    <path d="M214 95 Q224 95 224 102 Q224 110 214 110" stroke="#94a3b8" stroke-width="1.6" stroke-opacity="0.20"/>
    <path d="M196 84 Q199 76 196 70 M206 84 Q209 76 206 70" stroke="#ff6347" stroke-width="1.4" stroke-opacity="0.20"/>

    <!-- Taco / Croissant (Left-Center) -->
    <path d="M25 105 Q45 85 65 105 Z" stroke="#ff6347" stroke-width="1.8" stroke-opacity="0.22" fill="#ff6347" fill-opacity="0.04"/>
    <path d="M32 105 Q45 112 58 105" stroke="#94a3b8" stroke-width="1.6" stroke-opacity="0.20"/>

    <!-- Ambient Sparkles & Food Dots -->
    <circle cx="115" cy="35" r="2" fill="#ff6347" fill-opacity="0.20"/>
    <circle cx="218" cy="40" r="1.5" fill="#94a3b8" fill-opacity="0.18"/>
    <circle cx="15" cy="130" r="1.5" fill="#94a3b8" fill-opacity="0.18"/>
    <circle cx="110" cy="190" r="2" fill="#ff6347" fill-opacity="0.20"/>
    <circle cx="120" cy="225" r="1.5" fill="#94a3b8" fill-opacity="0.18"/>
  </g>
</svg>
